# Blender 3.5.1
# www.blender.org
o Cube
v -0.110000 -0.225000 -0.060000
v -0.125000 -0.210000 -0.060000
v -0.125000 -0.210000 0.000000
v -0.110000 -0.225000 0.000000
v -0.125000 0.210000 -0.060000
v -0.110000 0.225000 -0.060000
v -0.110000 0.225000 0.000000
v -0.125000 0.210000 0.000000
v 0.125000 -0.210000 -0.060000
v 0.110000 -0.225000 -0.060000
v 0.110000 -0.225000 0.000000
v 0.125000 -0.210000 0.000000
v 0.110000 0.225000 -0.060000
v 0.125000 0.210000 -0.060000
v 0.125000 0.210000 0.000000
v 0.110000 0.225000 0.000000
v 0.125000 -0.030000 0.000000
v 0.125000 0.030000 0.000000
v 0.125000 -0.030000 -0.060000
v 0.125000 0.030000 -0.060000
v -0.107929 -0.220000 -0.060000
v -0.120000 -0.207929 -0.060000
v -0.119862 -0.207872 -0.004515
v -0.107872 -0.219862 -0.004515
v -0.120000 0.207929 -0.060000
v -0.107929 0.220000 -0.060000
v -0.107872 0.219862 -0.004515
v -0.119862 0.207872 -0.004515
v 0.120000 -0.207929 -0.060000
v 0.107929 -0.220000 -0.060000
v 0.107872 -0.219862 -0.004515
v 0.119862 -0.207872 -0.004515
v 0.107929 0.220000 -0.060000
v 0.120000 0.207929 -0.060000
v 0.119862 0.207872 -0.004515
v 0.107872 0.219862 -0.004515
v 0.120000 -0.030000 -0.005000
v 0.120000 0.030000 -0.005000
v 0.120000 -0.030000 -0.060000
v 0.120000 0.030000 -0.060000
vn -0.0000 -1.0000 -0.0000
vn 1.0000 -0.0000 -0.0000
vn -0.0000 -0.0000 1.0000
vn -0.0000 1.0000 -0.0000
vn -0.7071 -0.7071 -0.0000
vn -0.7071 0.7071 -0.0000
vn 0.7071 0.7071 -0.0000
vn 0.7071 -0.7071 -0.0000
vn -1.0000 -0.0000 -0.0000
vn -0.0000 1.0000 -0.0025
vn -0.0000 -0.0000 -1.0000
vn -0.0000 -1.0000 -0.0025
vn 0.7071 0.7071 -0.0025
vn 0.7071 -0.7071 -0.0025
vn -0.7071 -0.7071 -0.0025
vn -0.7071 0.7071 -0.0025
vn 1.0000 -0.0000 -0.0025
vn -1.0000 -0.0008 -0.0025
vn -1.0000 0.0008 -0.0025
vn 0.0027 0.0027 -1.0000
vn -0.9618 -0.0000 -0.2736
vn -0.0711 -0.0020 -0.9975
vt 0.575439 0.538235
vt 0.575439 0.567179
vt 0.575439 0.538235
vt 0.575439 0.567179
vt 0.598418 0.540998
vt 0.604384 0.567179
vt 0.604384 0.538235
vt 0.604384 0.567179
vt 0.589911 0.538235
vt 0.604384 0.538235
vt 0.604384 0.567179
vt 0.575439 0.567179
vt 0.575439 0.538235
vt 0.604384 0.538235
vt 0.575439 0.538235
vt 0.603675 0.557179
vt 0.604384 0.538235
vt 0.603675 0.548235
vt 0.575439 0.567179
vt 0.604384 0.567179
vt 0.604384 0.567179
vt 0.575439 0.567179
vt 0.575439 0.538235
vt 0.604384 0.538235
vt 0.575439 0.538235
vt 0.604384 0.538235
vt 0.581405 0.540998
vt 0.604384 0.567179
vt 0.576148 0.548235
vt 0.575439 0.567179
vt 0.604384 0.567179
vt 0.575439 0.567179
vt 0.575439 0.538235
vt 0.604384 0.538235
vt 0.575439 0.538235
vt 0.589911 0.567179
vt 0.604384 0.538235
vt 0.598418 0.564415
vt 0.604384 0.567179
vt 0.575439 0.567179
vt 0.604384 0.538235
vt 0.576148 0.557179
vt 1.000000 0.000000
vt 0.581405 0.564415
vt 0.604384 0.567179
vt 0.000000 0.000000
vt 0.575439 0.538235
vt 1.000000 1.000000
vt 0.000000 1.000000
vt 0.575439 0.567179
vt 0.575439 0.538235
vt 0.575439 0.567179
vt 0.575439 0.567179
vt 0.575439 0.538235
vt 0.598418 0.540998
vt 0.604384 0.567179
vt 0.604384 0.538235
vt 0.604384 0.567179
vt 0.589911 0.538235
vt 0.604384 0.538235
vt 0.604384 0.567179
vt 0.575439 0.567179
vt 0.604384 0.538235
vt 0.575439 0.538235
vt 0.575439 0.538235
vt 0.603675 0.557179
vt 0.604384 0.538235
vt 0.603675 0.548235
vt 0.575439 0.567179
vt 0.604384 0.567179
vt 0.604384 0.567179
vt 0.575439 0.567179
vt 0.604384 0.538235
vt 0.575439 0.538235
vt 0.575439 0.538235
vt 0.604384 0.538235
vt 0.581405 0.540998
vt 0.604384 0.567179
vt 0.576148 0.548235
vt 0.575439 0.567179
vt 0.604384 0.567179
vt 0.575439 0.567179
vt 0.604384 0.538235
vt 0.575439 0.538235
vt 0.575439 0.538235
vt 0.604384 0.538235
vt 0.589911 0.567179
vt 0.598418 0.564415
vt 0.604384 0.567179
vt 0.575439 0.567179
vt 0.604384 0.538235
vt 0.576148 0.557179
vt 1.000000 0.000000
vt 0.581405 0.564415
vt 0.604384 0.567179
vt 0.000000 0.000000
vt 0.575439 0.538235
vt 1.000000 1.000000
vt 0.575439 0.567179
vt 0.000000 1.000000
s 0
f 11/26/1 1/2/1 10/23/1
f 17/41/2 9/22/2 19/47/2
f 16/38/3 4/9/3 17/42/3
f 7/17/4 13/32/4 6/13/4
f 4/10/5 2/4/5 1/1/5
f 6/14/6 8/19/6 7/15/6
f 14/34/7 16/40/7 15/35/7
f 10/24/8 12/30/8 11/25/8
f 3/7/9 5/12/9 2/3/9
f 15/37/2 20/50/2 14/33/2
f 18/46/2 19/48/2 20/49/2
f 21/52/10 31/76/10 30/74/10
f 29/72/9 37/91/9 39/97/9
f 32/79/11 28/68/11 36/88/11
f 33/82/12 27/67/12 26/64/12
f 22/53/13 24/60/13 21/51/13
f 28/69/14 26/63/14 27/65/14
f 36/90/15 34/83/15 35/85/15
f 32/80/16 30/73/16 31/75/16
f 25/62/17 23/57/17 22/54/17
f 34/84/18 38/95/18 35/86/18
f 39/98/9 38/96/9 40/100/9
f 2/4/11 21/51/11 1/1/11
f 5/11/11 26/63/11 25/61/11
f 14/34/11 33/81/11 13/31/11
f 9/21/11 30/73/11 29/71/11
f 5/12/11 22/54/11 2/3/11
f 1/2/11 30/74/11 10/23/11
f 13/32/11 26/64/11 6/13/11
f 20/50/11 34/84/11 14/33/11
f 19/47/11 29/72/11 39/97/11
f 19/48/11 40/100/11 20/49/11
f 11/26/1 4/8/1 1/2/1
f 17/41/2 12/28/2 9/22/2
f 18/44/3 15/36/3 16/38/3
f 16/38/3 7/16/3 8/18/3
f 8/18/3 3/5/3 4/9/3
f 4/9/3 11/27/3 12/29/3
f 17/42/3 18/44/3 16/38/3
f 4/9/3 12/29/3 17/42/3
f 16/38/3 8/18/3 4/9/3
f 7/17/4 16/39/4 13/32/4
f 4/10/5 3/6/5 2/4/5
f 6/14/6 5/11/6 8/19/6
f 14/34/7 13/31/7 16/40/7
f 10/24/8 9/21/8 12/30/8
f 3/7/9 8/20/9 5/12/9
f 15/37/2 18/45/2 20/50/2
f 18/46/2 17/43/2 19/48/2
f 21/52/10 24/58/10 31/76/10
f 29/72/19 32/78/19 37/91/19
f 36/88/20 35/87/20 38/94/20
f 38/94/21 37/92/21 32/79/21
f 32/79/11 31/77/11 24/59/11
f 24/59/11 23/55/11 28/68/11
f 28/68/11 27/66/11 36/88/11
f 36/88/22 38/94/22 32/79/22
f 32/79/11 24/59/11 28/68/11
f 33/82/12 36/89/12 27/67/12
f 22/53/13 23/56/13 24/60/13
f 28/69/14 25/61/14 26/63/14
f 36/90/15 33/81/15 34/83/15
f 32/80/16 29/71/16 30/73/16
f 25/62/17 28/70/17 23/57/17
f 34/84/9 40/99/9 38/95/9
f 39/98/9 37/93/9 38/96/9
f 2/4/11 22/53/11 21/51/11
f 5/11/11 6/14/11 26/63/11
f 14/34/11 34/83/11 33/81/11
f 9/21/11 10/24/11 30/73/11
f 5/12/11 25/62/11 22/54/11
f 1/2/11 21/52/11 30/74/11
f 13/32/11 33/82/11 26/64/11
f 20/50/11 40/99/11 34/84/11
f 19/47/11 9/22/11 29/72/11
f 19/48/11 39/98/11 40/100/11
