# Blender 4.0.2
# www.blender.org
o cup
v 0.000000 0.040000 -0.001086
v 0.000000 0.040000 -0.294472
v -0.020000 0.034641 -0.001086
v -0.020000 0.034641 -0.294472
v -0.034641 0.020000 -0.001086
v -0.034641 0.020000 -0.294472
v -0.040000 0.000000 -0.001086
v -0.040000 0.000000 -0.294472
v -0.034641 -0.020000 -0.001086
v -0.034641 -0.020000 -0.294472
v -0.020000 -0.034641 -0.001086
v -0.020000 -0.034641 -0.294472
v 0.000000 -0.040000 -0.001086
v 0.000000 -0.040000 -0.294472
v 0.020000 -0.034641 -0.001086
v 0.020000 -0.034641 -0.294472
v 0.034641 -0.020000 -0.001086
v 0.034641 -0.020000 -0.294472
v 0.040000 0.000000 -0.001086
v 0.040000 0.000000 -0.294472
v 0.034641 0.020000 -0.001086
v 0.034641 0.020000 -0.294472
v 0.020000 0.034641 -0.001086
v 0.020000 0.034641 -0.294472
v -0.000000 0.008631 -0.012644
v -0.004315 0.007474 -0.012644
v -0.007474 0.004315 -0.012644
v -0.008631 0.000000 -0.012644
v -0.007474 -0.004315 -0.012644
v -0.004315 -0.007474 -0.012644
v -0.000000 -0.008631 -0.012644
v 0.004315 -0.007474 -0.012644
v 0.007474 -0.004315 -0.012644
v 0.008631 0.000000 -0.012644
v 0.007474 0.004315 -0.012644
v 0.004315 0.007474 -0.012644
v 0.000000 0.040000 -0.225000
v -0.020000 0.034641 -0.225000
v -0.034641 0.020000 -0.225000
v -0.040000 0.000000 -0.225000
v -0.034641 -0.020000 -0.225000
v -0.020000 -0.034641 -0.225000
v 0.000000 -0.040000 -0.225000
v 0.020000 -0.034641 -0.225000
v 0.034641 -0.020000 -0.225000
v 0.040000 0.000000 -0.225000
v 0.034641 0.020000 -0.225000
v 0.020000 0.034641 -0.225000
v -0.004794 0.008303 -0.153803
v -0.008303 0.004794 -0.153803
v -0.009588 0.000000 -0.153803
v -0.008303 -0.004794 -0.153803
v -0.004794 -0.008303 -0.153803
v 0.000000 -0.009588 -0.153803
v 0.004794 -0.008303 -0.153803
v 0.008303 -0.004794 -0.153803
v 0.009588 0.000000 -0.153803
v 0.008303 0.004794 -0.153803
v 0.004794 0.008303 -0.153803
v 0.000000 0.009588 -0.153803
vn -0.2588 0.9659 -0.0000
vn -0.9659 0.2588 -0.0000
vn -0.9659 -0.2588 -0.0000
vn -0.7071 -0.7071 -0.0000
vn -0.2588 -0.9659 -0.0000
vn 0.2588 -0.9659 -0.0000
vn 0.7071 -0.7071 -0.0000
vn 0.9659 -0.2588 -0.0000
vn 0.9659 0.2588 -0.0000
vn 0.2588 0.9659 -0.0000
vn -0.0000 -0.0000 1.0000
vn 0.0922 0.3442 -0.9343
vn 0.2520 0.2520 -0.9343
vn 0.3442 0.0922 -0.9343
vn 0.3442 -0.0922 -0.9343
vn 0.2520 -0.2520 -0.9343
vn 0.0922 -0.3442 -0.9343
vn -0.0922 -0.3442 -0.9343
vn -0.2520 -0.2520 -0.9343
vn -0.3442 -0.0922 -0.9343
vn -0.3442 0.0922 -0.9343
vn -0.2520 0.2520 -0.9343
vn -0.0922 0.3442 -0.9343
vn 0.2393 0.8929 0.3814
vn 0.6537 0.6537 0.3814
vn 0.8929 0.2393 0.3814
vn 0.8929 -0.2393 0.3814
vn 0.6537 -0.6537 0.3814
vn 0.2393 -0.8929 0.3814
vn -0.2393 -0.8929 0.3814
vn -0.6537 -0.6537 0.3814
vn -0.8929 -0.2393 0.3814
vn -0.8929 0.2393 0.3814
vn -0.6537 0.6537 0.3814
vn -0.2393 0.8929 0.3814
vn -0.2588 0.9659 0.0065
vn -0.7071 0.7071 0.0065
vn -0.9659 0.2588 0.0065
vn -0.9659 -0.2588 0.0065
vn -0.7071 -0.7071 0.0065
vn -0.2588 -0.9659 0.0065
vn 0.2588 -0.9659 0.0065
vn 0.7071 -0.7071 0.0065
vn 0.9659 -0.2588 0.0065
vn 0.9659 0.2588 0.0065
vn 0.7071 0.7071 0.0065
vn 0.2588 0.9659 0.0065
vn -0.0000 -0.0000 -1.0000
vn -0.7071 0.7071 -0.0000
vn 0.7071 0.7071 -0.0000
vt 1.000000 0.777002
vt 0.916667 1.000000
vt 0.916667 0.777002
vt 0.833333 1.000000
vt 0.750000 0.777002
vt 0.833333 0.777002
vt 0.750000 1.000000
vt 0.666667 0.777002
vt 0.666667 1.000000
vt 0.583333 0.777002
vt 0.583333 1.000000
vt 0.500000 0.777002
vt 0.500000 1.000000
vt 0.416667 0.777002
vt 0.416667 1.000000
vt 0.333333 0.777002
vt 0.333333 1.000000
vt 0.250000 0.777002
vt 0.250000 1.000000
vt 0.166667 0.777002
vt 0.083333 1.000000
vt 0.000000 0.777002
vt 0.083333 0.777002
vt 0.990000 0.250000
vt 0.630000 0.042154
vt 0.630000 0.457846
vt 0.083333 0.519697
vt 0.000000 0.500000
vt 0.083333 0.500000
vt 0.166667 0.519697
vt 0.166667 0.500000
vt 0.250000 0.500000
vt 0.333333 0.519697
vt 0.333333 0.500000
vt 0.416667 0.519697
vt 0.416667 0.500000
vt 0.500000 0.519697
vt 0.500000 0.500000
vt 0.583333 0.519697
vt 0.583333 0.500000
vt 0.666667 0.519697
vt 0.666667 0.500000
vt 0.750000 0.519697
vt 0.750000 0.500000
vt 0.833333 0.519697
vt 0.833333 0.500000
vt 0.916667 0.519697
vt 0.916667 0.500000
vt 1.000000 0.500000
vt 0.000000 0.760266
vt 0.083333 0.760266
vt 0.166667 0.760266
vt 0.250000 0.760266
vt 0.333333 0.760266
vt 0.416667 0.760266
vt 0.500000 0.760266
vt 0.583333 0.760266
vt 0.666667 0.760266
vt 0.750000 0.760266
vt 0.833333 0.760266
vt 0.916667 0.760266
vt 1.000000 0.760266
vt 1.000000 0.519697
vt 0.250000 0.519697
vt 0.000000 0.519697
vt 0.000000 0.000000
vt 0.166667 1.000000
vt 1.000000 1.000000
vt 0.000000 1.000000
vt 0.750000 0.490000
vt 0.870000 0.457846
vt 0.957846 0.370000
vt 0.957846 0.130000
vt 0.870000 0.042154
vt 0.750000 0.010000
vt 0.542154 0.130000
vt 0.510000 0.250000
vt 0.542154 0.370000
s 0
f 37/1/1 4/2/1 38/3/1
f 6/4/2 40/5/2 39/6/2
f 8/7/3 41/8/3 40/5/3
f 10/9/4 42/10/4 41/8/4
f 12/11/5 43/12/5 42/10/5
f 14/13/6 44/14/6 43/12/6
f 16/15/7 45/16/7 44/14/7
f 18/17/8 46/18/8 45/16/8
f 20/19/9 47/20/9 46/18/9
f 24/21/10 37/22/10 48/23/10
f 7/24/11 15/25/11 23/26/11
f 36/27/12 1/28/12 23/29/12
f 35/30/13 23/29/13 21/31/13
f 19/32/14 35/30/14 21/31/14
f 33/33/15 19/32/15 17/34/15
f 32/35/16 17/34/16 15/36/16
f 31/37/17 15/36/17 13/38/17
f 30/39/18 13/38/18 11/40/18
f 29/41/19 11/40/19 9/42/19
f 28/43/20 9/42/20 7/44/20
f 27/45/21 7/44/21 5/46/21
f 26/47/22 5/46/22 3/48/22
f 1/49/23 26/47/23 3/48/23
f 48/23/24 60/50/24 59/51/24
f 47/20/25 59/51/25 58/52/25
f 57/53/26 47/20/26 58/52/26
f 45/16/27 57/53/27 56/54/27
f 44/14/28 56/54/28 55/55/28
f 54/56/29 44/14/29 55/55/29
f 42/10/30 54/56/30 53/57/30
f 41/8/31 53/57/31 52/58/31
f 51/59/32 41/8/32 52/58/32
f 39/6/33 51/59/33 50/60/33
f 38/3/34 50/60/34 49/61/34
f 37/1/35 49/61/35 60/62/35
f 60/62/36 26/47/36 25/63/36
f 49/61/37 27/45/37 26/47/37
f 50/60/38 28/43/38 27/45/38
f 51/59/39 29/41/39 28/43/39
f 52/58/40 30/39/40 29/41/40
f 53/57/41 31/37/41 30/39/41
f 54/56/42 32/35/42 31/37/42
f 55/55/43 33/33/43 32/35/43
f 56/54/44 34/64/44 33/33/44
f 57/53/45 35/30/45 34/64/45
f 58/52/46 36/27/46 35/30/46
f 59/51/47 25/65/47 36/27/47
f 24/66/48 4/66/48 2/66/48
f 22/66/48 4/66/48 24/66/48
f 22/66/48 6/66/48 4/66/48
f 20/66/48 6/66/48 22/66/48
f 20/66/48 8/66/48 6/66/48
f 18/66/48 8/66/48 20/66/48
f 18/66/48 10/66/48 8/66/48
f 16/66/48 10/66/48 18/66/48
f 16/66/48 12/66/48 10/66/48
f 14/66/48 12/66/48 16/66/48
f 39/6/49 4/2/49 6/4/49
f 48/23/50 22/67/50 24/21/50
f 37/1/1 2/68/1 4/2/1
f 6/4/2 8/7/2 40/5/2
f 8/7/3 10/9/3 41/8/3
f 10/9/4 12/11/4 42/10/4
f 12/11/5 14/13/5 43/12/5
f 14/13/6 16/15/6 44/14/6
f 16/15/7 18/17/7 45/16/7
f 18/17/8 20/19/8 46/18/8
f 20/19/9 22/67/9 47/20/9
f 24/21/10 2/69/10 37/22/10
f 23/26/11 1/70/11 3/71/11
f 3/71/11 5/72/11 7/24/11
f 7/24/11 9/73/11 11/74/11
f 11/74/11 13/75/11 15/25/11
f 15/25/11 17/76/11 19/77/11
f 19/77/11 21/78/11 23/26/11
f 23/26/11 3/71/11 7/24/11
f 7/24/11 11/74/11 15/25/11
f 15/25/11 19/77/11 23/26/11
f 36/27/12 25/65/12 1/28/12
f 35/30/13 36/27/13 23/29/13
f 19/32/14 34/64/14 35/30/14
f 33/33/15 34/64/15 19/32/15
f 32/35/16 33/33/16 17/34/16
f 31/37/17 32/35/17 15/36/17
f 30/39/18 31/37/18 13/38/18
f 29/41/19 30/39/19 11/40/19
f 28/43/20 29/41/20 9/42/20
f 27/45/21 28/43/21 7/44/21
f 26/47/22 27/45/22 5/46/22
f 1/49/23 25/63/23 26/47/23
f 48/23/24 37/22/24 60/50/24
f 47/20/25 48/23/25 59/51/25
f 57/53/26 46/18/26 47/20/26
f 45/16/27 46/18/27 57/53/27
f 44/14/28 45/16/28 56/54/28
f 54/56/29 43/12/29 44/14/29
f 42/10/30 43/12/30 54/56/30
f 41/8/31 42/10/31 53/57/31
f 51/59/32 40/5/32 41/8/32
f 39/6/33 40/5/33 51/59/33
f 38/3/34 39/6/34 50/60/34
f 37/1/35 38/3/35 49/61/35
f 60/62/36 49/61/36 26/47/36
f 49/61/37 50/60/37 27/45/37
f 50/60/38 51/59/38 28/43/38
f 51/59/39 52/58/39 29/41/39
f 52/58/40 53/57/40 30/39/40
f 53/57/41 54/56/41 31/37/41
f 54/56/42 55/55/42 32/35/42
f 55/55/43 56/54/43 33/33/43
f 56/54/44 57/53/44 34/64/44
f 57/53/45 58/52/45 35/30/45
f 58/52/46 59/51/46 36/27/46
f 59/51/47 60/50/47 25/65/47
f 39/6/49 38/3/49 4/2/49
f 48/23/50 47/20/50 22/67/50
